<svg xmlns="http://www.w3.org/2000/svg" width="201mm" height="137mm" viewBox="0 0 201 137">
<style>
.mycircle {
	opacity: 1;
	fill-opacity: 0;
	stroke: #000000;
	stroke-width: 1.95;
}

.myline {
	fill: none;
	stroke: #000000;
	stroke-width: 1.95;
	stroke-linecap: butt;
	stroke-linejoin: round;
}
</style>
<circle class="mycircle" cx="144.4992765" cy="58.122382" r="3.2715623"/>
<circle class="mycircle" cx="8.0616445" cy="44.887233" r="3.2715623"/>
<circle class="mycircle" cx="24.6978985" cy="30.025981" r="3.2715623"/>
<circle class="mycircle" cx="196.3462865" cy="131.753863" r="3.2715623"/>
<path class="myline" d="M 24.6978985,33.297544 V 72.423547 H 130.9850765"/>
<path class="myline" d="M 151.0101965,5.262376 H 8.0616445 v 36.353294"/>
<circle class="mycircle" cx="8.0616445" cy="60.043723" r="3.2715623"/>
<circle class="mycircle" cx="92.0498425" cy="85.805043" r="3.2715623"/>
<circle class="mycircle" cx="19.1285335" cy="116.860743" r="3.2715623"/>
<circle class="mycircle" cx="189.5892065" cy="110.626813" r="3.2715623"/>
<circle class="mycircle" cx="189.5892065" cy="4.746562" r="3.2715623"/>
<circle class="mycircle" cx="174.6811265" cy="25.551722" r="3.2715623"/>
<circle class="mycircle" cx="157.5051365" cy="35.089549" r="3.2715623"/>
<circle class="mycircle" cx="4.8814105" cy="101.391463" r="3.2715623"/>
<path class="myline" d="M 8.1529735,101.391463 H 114.4324365"/>
<circle class="mycircle" cx="117.7040065" cy="101.391463" r="3.2715623"/>
<circle class="mycircle" cx="118.5070565" cy="85.851243" r="3.2715623"/>
<path class="myline" d="M 121.7786165,85.851243 h 35.72651 V 38.361111"/>
<circle class="mycircle" cx="39.0547095" cy="131.753863" r="3.2715623"/>
<path class="myline" d="M 42.3262705,131.753853 H 193.0747265"/>
<path class="myline" d="M 189.5892165,107.355253 V 8.018125"/>
<path class="myline" d="M 22.4000955,116.860753 H 143.3524765 l 31.32865,-31.32865 V 28.823286"/>
<circle class="mycircle" cx="27.5879085" cy="17.277449" r="3.2715623"/>
<path class="myline" d="M 30.8594725,17.277449 H 144.2324565"/>
<circle class="mycircle" cx="147.5040165" cy="17.277449" r="3.2715623"/>
<circle class="mycircle" cx="181.9748565" cy="94.448433" r="3.2715623"/>
<circle class="mycircle" cx="154.7043865" cy="121.718903" r="3.2715623"/>
<path class="myline" d="M 179.6615165,96.761773 l -22.64379,22.64379"/>
<path class="myline" d="M 8.0616445,63.315282 V 85.805043 H 88.7782825"/>
<circle class="mycircle" cx="154.2817565" cy="5.262376" r="3.2715623"/>
<circle class="mycircle" cx="134.2566465" cy="72.423545" r="3.2715623"/>
<circle class="mycircle" cx="40.1478265" cy="40.473075" r="3.2715623"/>
<path class="myline" d="M 40.1478265,43.744637 V 58.122379 H 141.2277165"/>
<circle class="mycircle" cx="61.1684945" cy="28.984443" r="3.2715623"/>
<circle class="mycircle" cx="135.4889465" cy="28.984443" r="3.2715623"/>
<path class="myline" d="M 64.4400585,28.984441 H 132.2173865"/>
</svg>
